<?xml version="1.0" encoding="UTF-8"?>
<svg width="421px" height="301px" viewBox="0 0 421 301" version="1.1" xmlns="http://www.w3.org/2000/svg" xmlns:xlink="http://www.w3.org/1999/xlink">
    <!-- Generator: Sketch 42 (36781) - http://www.bohemiancoding.com/sketch -->
    <title>Group</title>
    <desc>Created with Sketch.</desc>
    <defs></defs>
    <g id="Page-1" stroke="none" stroke-width="1" fill="none" fill-rule="evenodd">
        <g id="Group">
            <path d="M6.774,102.571 C6.774,102.571 6.522,103.662 7.353,103.949 C8.185,104.236 11.521,104.455 11.521,104.455 C11.521,104.455 13.937,105.722 19.397,104.999 C19.397,104.999 27.62,104.174 32.635,107.08 C37.65,109.987 37.373,109.892 41.557,110.528 C41.557,110.528 55.124,124.073 72.535,120.708 C72.535,120.708 75.836,120.668 78.365,121.788 C80.895,122.907 85.226,123.656 86.041,123.813 C86.855,123.969 88.251,123.52 88.251,123.52 L86.58,121.89 L89.925,121.182 C89.925,121.182 90.41,120.853 88.453,120.054 C86.495,119.255 84.027,117.598 83.144,116.922 C82.26,116.245 77.869,114.049 76.561,113.164 C75.254,112.28 70.949,110.734 73.343,106.845 C73.343,106.845 75.207,105.937 75.545,105.495 C75.884,105.054 75.373,104.195 75.373,104.195 C75.373,104.195 77.696,103.755 76.873,102.542 C76.873,102.542 79.127,101.582 77.481,101.138 C77.481,101.138 79.605,100.196 78.704,99.389 C78.704,99.389 80.212,98.792 79.39,97.579 C79.39,97.579 80.639,97.016 80.094,95.898 C80.094,95.898 81.472,95.319 80.814,94.348 C80.814,94.348 81.751,93.43 81.145,92.849 C81.145,92.849 82.159,91.524 81.293,90.977 C81.293,90.977 83.061,90.346 81.884,89.444 C81.884,89.444 83.063,88.362 82.033,87.573 C82.033,87.573 83.394,86.863 82.346,85.944 C82.346,85.944 83.768,84.697 82.737,83.908 C82.737,83.908 84.116,83.329 82.774,82.184 C82.774,82.184 83.528,80.893 82.29,80.528 C82.29,80.528 84.752,79.144 82.647,78.232 C82.647,78.232 85.717,75.445 83.212,75.512 C83.212,75.512 85.139,72.082 82.929,72.375 C82.929,72.375 84.811,69.613 82.697,69.628 C82.697,69.628 84.216,66.12 82.431,66.621 C82.431,66.621 84.054,63.893 81.792,63.796 C81.792,63.796 83.772,58.772 78.846,63.525 C78.846,63.525 83.352,52.611 75.476,63.046 C75.476,63.046 80.566,47.557 73.016,62.446 C73.016,62.446 74.269,44.952 69.608,65.675 C69.608,65.675 63.777,75.574 63.421,75.886 C63.066,76.197 63.251,72.602 61.291,73.787 C59.332,74.973 60.078,74.609 60.078,74.609 L58.613,74.539 C58.613,74.539 59.348,66.108 55.841,73.583 C55.841,73.583 55.893,62.995 52.61,72.16 C52.61,72.16 51.565,58.278 50.045,72.764 C50.045,72.764 48.098,80.032 48.389,84.226 C48.389,84.226 44.972,88.383 47.681,91.86 C47.681,91.86 49.687,97.017 47.587,101.131 C47.587,101.131 47.56,101.928 44.77,102.827 C41.979,103.726 38.018,104.78 35.229,103.695 C32.439,102.609 30.256,102.105 28.532,102.069 C26.808,102.033 22.675,101.787 22.675,101.787 C22.675,101.787 17.168,96.167 11.385,101.431 L6.774,102.571" id="Fill-1" fill="#1A1918"></path>
            <path d="M161.482,65.593 C161.482,65.593 165.51,67.043 165.626,62.927 C165.742,58.812 163.371,54.893 163.371,54.893 C163.371,54.893 159.232,51.606 161.739,47.57 C161.739,47.57 159.188,41.294 161.392,37.96 C161.392,37.96 162.37,29.365 162.232,28.326 C162.094,27.286 163.532,28.153 163.997,31.663 C163.997,31.663 166.263,25.807 166.925,31.804 C166.925,31.804 170.429,28.298 169.87,34.059 C169.87,34.059 172.662,31.176 173.699,35.007 C173.699,35.007 176.107,35.217 175.966,38.146 C175.966,38.146 178.159,37.723 178.702,40.825 C178.702,40.825 181.025,40.385 181.413,42.318 L196.137,18.674 C196.137,18.674 198.977,11.156 199.188,6.763 C199.188,6.763 200.825,8.133 199.346,14.943 L204.493,4.869 C204.493,4.869 205.243,9.532 201.841,15.802 L207.532,6.848 C207.532,6.848 209.03,9.162 205.316,15.077 L209.825,11.173 C209.825,11.173 210.152,13.643 208.816,15.539 C208.816,15.539 210.019,17.629 208.379,20.227 C208.379,20.227 210.111,21.32 208.514,25.235 C208.514,25.235 210.02,26.623 208.268,29.368 C208.268,29.368 209.203,30.435 207.416,32.92 C207.416,32.92 208.488,35.027 206.65,37.122 C206.65,37.122 207.982,39.194 205.224,42.337 C205.224,42.337 205.533,46.661 203.606,50.091 C203.606,50.091 202.411,60.038 197.866,65.666 C197.866,65.666 195.592,70.465 195.634,71.782 C195.634,71.782 195.772,72.821 197.175,73.429 C198.578,74.037 201.108,75.157 201.722,76.795 L209.067,80.319 L184.518,81.72 C184.518,81.72 171.182,81.9 160.028,73.589 C148.875,65.279 144.438,65.735 144.438,65.735 L135.549,64.532 L132.698,63.984 L129.328,63.504 C129.328,63.504 129.112,62.872 130.785,62.518 C132.457,62.164 133.784,61.194 134.902,60.649 C136.02,60.104 141.109,57.578 145.273,62.053 L156.552,65.32 L161.482,65.593" id="Fill-2" fill="#1A1918"></path>
            <path d="M112.901,129.03 C112.901,129.03 114.01,129.412 115.006,129.941 C116.002,130.471 121.035,131.523 125.524,131.457 C125.524,131.457 133.678,130.112 138.598,133.297 C143.517,136.481 146.884,140.928 146.884,140.928 C146.884,140.928 139.465,142.837 139.031,154.535 C139.031,154.535 135.576,162.4 136.098,169.341 C136.098,169.341 135.547,176.16 134.194,177.926 C134.194,177.926 135.173,178.325 136.447,176.966 L136.573,182.902 C136.573,182.902 138.48,181.326 138.985,179.143 L139.951,184.438 C139.951,184.438 141.598,182.897 141.774,180.228 L143.02,181.651 C143.02,181.651 144.538,180.127 144.262,178.047 C144.262,178.047 146.325,177.641 146.302,174.47 C146.302,174.47 149.179,174.221 149.398,170.885 C149.398,170.885 152.093,170.264 152.104,167.352 C152.104,167.352 154.002,166.704 153.883,163.81 L155.504,163.066 C155.504,163.066 156.547,169.938 160.04,169.343 L162.644,174.024 C162.644,174.024 163.667,173.756 163.754,172.422 C163.754,172.422 166.454,176.826 165.584,171.254 C165.584,171.254 168.467,174.046 167.596,168.474 C167.596,168.474 169.33,167.583 168.804,164.61 C168.804,164.61 170.866,164.205 170.505,161.475 C170.505,161.475 172.057,160.211 171.781,158.131 C171.781,158.131 172.899,157.586 172.511,155.654 C172.511,155.654 173.742,154.962 173.207,152.916 C173.207,152.916 173.935,152.423 173.399,150.378 L176.323,145.493 L192.277,143.115 C192.277,143.115 193.526,142.552 191.014,141.562 C188.502,140.573 183.044,139.312 180.107,138.114 C177.171,136.915 164.016,128.474 141.789,129.435 C141.789,129.435 136.574,128.009 130.803,128.377 C130.803,128.377 127.597,128.141 126.584,127.481 C125.571,126.822 122.055,124.245 117.676,128.132 L112.901,129.03" id="Fill-3" fill="#1A1918"></path>
            <path d="M213.792,162.067 C213.792,162.067 222.03,165.34 228.816,163.648 C228.816,163.648 238.772,163.916 243.456,168.321 C243.456,168.321 231.359,179.845 231.501,185.91 L224.348,201.804 C224.348,201.804 225.249,202.611 226.931,201.33 L226.27,204.327 C226.27,204.327 227.942,203.974 228.854,201.869 L229.736,204.53 C229.736,204.53 231.322,203.526 231.87,200.675 C231.87,200.675 235.17,202.619 235.546,198.469 C235.546,198.469 238.058,199.459 238.893,195.777 C238.893,195.777 241.267,195.727 241.902,193.526 C241.902,193.526 243.591,193.303 243.723,191.301 C243.723,191.301 246.453,190.939 246.16,188.73 C246.16,188.73 248.985,188.091 248.727,186.141 C248.727,186.141 250.581,186.16 250.375,184.6 C250.375,184.6 252.168,185.156 252.221,183.562 C252.221,183.562 254.205,183.563 254.129,181.986 C254.129,181.986 255.983,182.005 255.793,180.575 C255.793,180.575 257.292,180.906 257.25,179.588 C257.25,179.588 258.064,179.745 258.039,178.558 C258.039,178.558 259.798,178.854 259.609,177.424 C259.609,177.424 260.796,177.399 260.753,176.082 C260.753,176.082 262.348,176.135 262.418,174.671 C262.418,174.671 263.345,174.68 263.078,173.658 L275.53,172.801 C275.53,172.801 282.894,174.471 286.898,172.75 C286.898,172.75 292.627,171.065 288.419,167.258 C288.419,167.258 288.119,163.991 278.733,166.028 L274.332,164.759 C274.332,164.759 272.141,163.198 274.976,161.632 C274.976,161.632 280.263,159.609 275.985,157.266 C275.985,157.266 275.128,155.792 271.202,157.106 C271.202,157.106 270.79,152.002 268.567,157.19 L267.086,156.99 C267.086,156.99 267.584,151.765 265.214,156.841 C265.214,156.841 261.814,150.149 262.234,156.31 C262.234,156.31 258.64,154.141 254.452,157.473 C254.452,157.473 249.019,157.399 244.736,161.009 L235.256,161.339 L227.414,161.056 C227.414,161.056 223.199,156.191 217.051,160.709 L213.792,162.067" id="Fill-4" fill="#1A1918"></path>
            <path d="M303.61,189.393 C303.61,189.393 299.943,190.881 303.412,191.137 C306.881,191.393 310.172,191.386 310.172,191.386 C310.172,191.386 314.504,191.671 317.561,190.979 C317.561,190.979 328.372,191.551 334.239,194.781 C340.106,198.012 359.179,209.082 380.528,199.526 C380.528,199.526 397.64,200.122 393.761,196.771 C393.761,196.771 401.609,196.59 392.703,194.191 C383.797,191.793 375.632,189.583 375.632,189.583 C375.632,189.583 375.737,187.136 374.754,185.119 C374.754,185.119 377.765,173.269 376.458,165.57 C376.458,165.57 377.445,163.292 376.245,162.879 C376.245,162.879 377.231,160.601 375.769,160.365 C375.769,160.365 376.989,158.772 375.348,158.274 L374.816,155.339 C374.816,155.339 376.965,153.193 374.95,152.029 C374.95,152.029 377.184,149.443 374.944,148.738 C374.944,148.738 376.596,146.085 374.637,145.343 C374.637,145.343 376.084,141.143 373.964,142.426 C373.964,142.426 374.915,137.72 372.598,138.599 C372.598,138.599 374.749,134.307 371.899,134.398 C371.899,134.398 372.512,129.307 369.406,132.868 C369.406,132.868 370.323,123.586 365.984,131.89 C365.984,131.89 366.933,117.45 361.772,133.593 C361.772,133.593 361.712,115.852 358.479,135.747 C358.479,135.747 351.248,150.303 352.839,153.67 C352.839,153.67 347.77,160.783 349.995,168.933 C349.995,168.933 349.798,180.41 347.347,184.599 C347.347,184.599 338.519,190.35 336.371,190.348 C334.224,190.346 323.874,187.853 323.874,187.853 L318.924,187.22 C318.924,187.22 313.33,182.809 307.062,187.361 L303.61,189.393" id="Fill-5" fill="#1A1918"></path>
            <path d="M254.203,2.391 C254.203,2.391 250.705,2.733 253.898,3.776 C257.091,4.819 259.387,6.47 264.342,6.058 C264.342,6.058 277.668,7.958 280.533,9.289 C283.397,10.62 287.966,12.825 287.966,12.825 C287.966,12.825 273.918,22.995 274.848,30.937 C274.848,30.937 268.493,39.232 267.546,43.146 C267.546,43.146 264.862,45.945 266.439,45.858 C266.439,45.858 262.449,50.786 268.424,46.084 C268.424,46.084 264.736,53.293 270.543,48.247 C270.543,48.247 269.772,51.648 273.36,49.218 C273.36,49.218 274.319,50.924 276.667,47.436 C276.667,47.436 280.054,46.254 280.849,43.949 C280.849,43.949 284.091,43.519 284.749,41.111 C284.749,41.111 287.207,40.296 287.376,38.807 C287.376,38.807 290.315,37.929 290.613,35.568 C290.613,35.568 292.614,35.914 293.073,32.921 C293.073,32.921 299.622,30.709 300.224,28.796 C300.224,28.796 300.324,34.159 302.783,31.512 C302.783,31.512 304.767,33.571 306.352,32.627 C306.352,32.627 308.862,36.816 310.241,34.312 C310.241,34.312 312.353,35.498 313.395,34.138 C313.395,34.138 316.074,36.838 317.047,32.188 C317.047,32.188 318.336,31.773 318.369,30.18 C318.369,30.18 320.852,28.629 320.861,27.772 C320.861,27.772 323.495,26.446 323.161,23.924 C323.161,23.924 324.923,22.469 323.019,21.01 C323.019,21.01 326.726,20.397 326.976,17.676 C326.976,17.676 338.377,15.188 338.673,14.66 C338.97,14.132 333.336,12.19 332.208,11.973 C331.079,11.756 324.471,7.988 321.917,8.082 C319.364,8.176 321.437,8.146 321.437,8.146 C321.437,8.146 302.395,-2.772 288.998,4.013 C288.998,4.013 279.551,6.487 271.884,3.959 C264.218,1.431 262.441,0.933 262.441,0.933 C262.441,0.933 258.56,0.226 254.203,2.391" id="Fill-6" fill="#1A1918"></path>
            <path d="M17.515,291.317 L9.755,291.317 L9.755,278.362 L17.653,278.362 C22.433,278.362 24.927,281.064 24.927,284.944 C24.927,288.893 22.156,291.317 17.515,291.317 Z M9.755,258.203 L16.476,258.203 C21.117,258.203 23.542,260.558 23.542,264.299 C23.542,268.04 20.91,270.465 16.544,270.465 L9.755,270.465 L9.755,258.203 Z M25.828,273.928 C29.915,272.543 32.963,268.456 32.963,263.399 C32.963,255.778 27.559,250.167 18,250.167 L0.333,250.167 L0.333,299.284 L19.316,299.284 C28.529,299.284 34.488,293.534 34.488,285.567 C34.488,279.471 30.607,275.106 25.828,273.928 L25.828,273.928 Z" id="Fill-7" fill="#000105"></path>
            <polygon id="Fill-8" fill="#000105" points="52.287 299.284 61.986 299.284 61.986 250.167 52.287 250.167"></polygon>
            <path d="M100.294,272.127 L92.535,272.127 L92.535,258.48 L100.294,258.48 C105.142,258.48 107.983,261.182 107.983,265.338 C107.983,269.357 105.142,272.127 100.294,272.127 Z M117.751,265.269 C117.751,256.748 111.654,250.167 102.095,250.167 L82.904,250.167 L82.904,299.284 L92.535,299.284 L92.535,280.371 L97.522,280.371 L107.152,299.284 L117.821,299.284 L107.29,279.194 C113.733,277.323 117.751,272.127 117.751,265.269 L117.751,265.269 Z" id="Fill-9" fill="#000105"></path>
            <path d="M153.079,290.416 L145.458,290.416 L145.458,259.034 L153.147,259.034 C161.184,259.034 167.834,264.091 167.834,274.76 C167.834,285.428 161.115,290.416 153.079,290.416 Z M153.494,250.167 L135.897,250.167 L135.897,299.284 L153.425,299.284 C167.419,299.284 177.741,290.278 177.741,274.76 C177.741,259.242 167.488,250.167 153.494,250.167 L153.494,250.167 Z" id="Fill-10" fill="#000105"></path>
            <path d="M215.633,270.672 L208.774,269.357 C205.172,268.664 203.44,266.516 203.44,263.814 C203.44,260.558 206.488,257.58 211.13,257.58 C217.365,257.58 219.582,261.805 220.067,264.507 L228.657,261.875 C227.548,256.332 222.977,249.128 211.06,249.128 C201.778,249.128 193.949,255.778 193.949,264.507 C193.949,271.92 199.006,276.977 206.834,278.57 L213.693,279.956 C217.504,280.718 219.65,282.934 219.65,285.775 C219.65,289.239 216.81,291.802 211.684,291.802 C204.756,291.802 201.361,287.438 200.946,282.588 L192.079,284.944 C192.841,291.94 198.591,300.323 211.615,300.323 C223.045,300.323 229.349,292.702 229.349,285.151 C229.349,278.224 224.569,272.405 215.633,270.672" id="Fill-11" fill="#000105"></path>
            <path d="M269.319,291.04 C261.767,291.04 254.009,285.775 254.009,274.691 C254.009,263.607 261.767,258.341 269.319,258.341 C276.939,258.341 284.698,263.607 284.698,274.691 C284.698,285.775 276.939,291.04 269.319,291.04 Z M269.319,249.128 C256.017,249.128 244.102,258.896 244.102,274.76 C244.102,290.555 256.017,300.323 269.319,300.323 C282.689,300.323 294.604,290.555 294.604,274.76 C294.604,258.896 282.689,249.128 269.319,249.128 L269.319,249.128 Z" id="Fill-12" fill="#000105"></path>
            <polyline id="Fill-13" fill="#000105" points="344.964 282.658 324.528 250.167 312.611 250.167 312.611 299.284 322.172 299.284 322.172 264.438 344.479 299.284 354.525 299.284 354.525 250.167 344.964 250.167 344.964 282.658"></polyline>
            <path d="M420.822,273.737 L419.717,273.736 C419.716,273.731 419.716,273.726 419.716,273.721 L395.394,273.721 L395.394,282.034 L411.512,282.034 C411.512,282.034 410.7,284.937 408.068,287.557 C406.622,289.105 404.569,290.45 401.774,291.126 C401.747,291.132 401.72,291.138 401.693,291.144 C400.51,291.423 399.208,291.594 397.749,291.594 C389.506,291.594 382.231,285.844 382.231,274.76 C382.231,263.121 390.268,258.064 397.68,258.064 C405.647,258.064 409.734,263.121 410.981,267.486 L420.125,264.23 C417.7,256.679 410.565,249.128 397.68,249.128 C384.378,249.128 372.533,258.896 372.533,274.76 C372.533,290.624 383.824,300.323 397.057,300.323 C397.779,300.323 398.467,300.28 399.14,300.219 C399.14,300.219 399.721,300.145 400.391,300.042 C401.246,299.871 402.466,299.593 403.834,299.173 C403.935,299.143 404.039,299.109 404.142,299.078 C404.232,299.049 404.319,299.024 404.41,298.994 C405.046,298.793 405.695,298.568 406.334,298.314 L406.328,298.345 C406.455,298.289 406.568,298.224 406.692,298.166 C407.748,297.727 408.76,297.216 409.599,296.622 L409.616,296.568 C409.79,296.453 409.971,296.344 410.14,296.223 C410.178,296.197 410.217,296.172 410.254,296.146 C410.334,296.088 410.412,296.03 410.49,295.972 C421.423,288.152 420.822,273.737 420.822,273.737" id="Fill-14" fill="#000105"></path>
        </g>
    </g>
</svg>