<?xml version="1.0" encoding="UTF-8"?>
<svg width="395px" height="373px" viewBox="0 0 395 373" version="1.1" xmlns="http://www.w3.org/2000/svg" xmlns:xlink="http://www.w3.org/1999/xlink">
    <!-- Generator: Sketch 42 (36781) - http://www.bohemiancoding.com/sketch -->
    <title>Shape</title>
    <desc>Created with Sketch.</desc>
    <defs></defs>
    <g id="Page-1" stroke="none" stroke-width="1" fill="none" fill-rule="evenodd">
        <path d="M197.628,7.951 C172.98,8.029 152.646,27.781 148.076,53.26 L82.188,53.26 C77.923,53.266 74.537,56.85 74.77,61.108 C75.571,75.85 77.827,89.972 81.165,103.394 C34.196,156.229 14.168,245.495 8.196,357.284 C7.97,361.542 11.361,365.119 15.626,365.12 L379.653,365.12 C383.918,365.119 387.309,361.542 387.083,357.284 C381.111,245.495 361.083,156.23 314.114,103.394 C317.452,89.972 319.709,75.85 320.509,61.108 C320.742,56.85 317.357,53.266 313.092,53.26 L247.204,53.26 C241.135,20.314 214.725,7.412 197.628,7.951 Z M197.64,22.833 C213.619,22.839 227.807,35.254 232.067,53.26 L163.214,53.26 C167.473,35.254 181.66,22.842 197.64,22.833 Z M172.306,198.487 C119.702,179.031 94.629,117.908 90.606,68.141 L304.674,68.141 C300.651,117.908 275.577,179.031 222.974,198.487 L197.64,202.112 L172.306,198.487 Z M224.184,213.648 C265.593,200.678 293.246,165.305 309.139,120.531 C346.697,168.608 365.333,249.116 371.481,350.237 L23.8,350.237 C29.946,249.116 48.583,168.608 86.141,120.531 C102.035,165.305 129.687,200.678 171.097,213.648 L197.64,216.445 L224.184,213.648 Z" id="Shape" stroke="#000000" stroke-width="15" fill="#000000" fill-rule="nonzero"></path>
    </g>
</svg>